<?xml version="1.0" encoding="utf-8" standalone="no"?>
<!DOCTYPE svg PUBLIC "-//W3C//DTD SVG 1.1//EN"
  "http://www.w3.org/Graphics/SVG/1.1/DTD/svg11.dtd">
<svg xmlns:xlink="http://www.w3.org/1999/xlink" width="460.8pt" height="345.6pt" viewBox="0 0 460.8 345.6" xmlns="http://www.w3.org/2000/svg" version="1.1">
 <metadata>
  <rdf:RDF xmlns:dc="http://purl.org/dc/elements/1.1/" xmlns:cc="http://creativecommons.org/ns#" xmlns:rdf="http://www.w3.org/1999/02/22-rdf-syntax-ns#">
   <cc:Work>
    <dc:type rdf:resource="http://purl.org/dc/dcmitype/StillImage"/>
    <dc:date>2025-09-12T13:14:15.212434</dc:date>
    <dc:format>image/svg+xml</dc:format>
    <dc:creator>
     <cc:Agent>
      <dc:title>Matplotlib v3.10.3, https://matplotlib.org/</dc:title>
     </cc:Agent>
    </dc:creator>
   </cc:Work>
  </rdf:RDF>
 </metadata>
 <defs>
  <style type="text/css">*{stroke-linejoin: round; stroke-linecap: butt}</style>
 </defs>
 <g id="figure_1">
  <g id="patch_1">
   <path d="M 0 345.6 
L 460.8 345.6 
L 460.8 0 
L 0 0 
z
" style="fill: #ffffff"/>
  </g>
  <g id="axes_1">
   <g id="patch_2">
    <path d="M 57.6 307.584 
L 414.72 307.584 
L 414.72 41.472 
L 57.6 41.472 
z
" style="fill: #ffffff"/>
   </g>
   <g id="matplotlib.axis_1"/>
   <g id="matplotlib.axis_2"/>
   <g id="line2d_1">
    <path d="M 57.6 307.509382 
L 74.401441 307.302563 
L 80.478559 307.040777 
L 84.410811 306.657751 
L 87.270631 306.160998 
L 89.772973 305.484288 
L 91.917838 304.6533 
L 93.705225 303.735123 
L 95.492613 302.571483 
L 97.28 301.127678 
L 99.067387 299.376375 
L 100.854775 297.302511 
L 102.642162 294.90831 
L 104.787027 291.647951 
L 107.289369 287.428546 
L 113.723964 276.338089 
L 115.511351 273.776498 
L 116.941261 272.057326 
L 118.371171 270.69055 
L 119.443604 269.922204 
L 120.516036 269.387725 
L 121.588468 269.093906 
L 122.660901 269.042057 
L 123.733333 269.227939 
L 124.805766 269.641911 
L 125.878198 270.26927 
L 127.308108 271.403834 
L 128.738018 272.827078 
L 130.525405 274.912764 
L 133.742703 279.109872 
L 136.96 283.223381 
L 139.104865 285.608133 
L 140.892252 287.268699 
L 142.67964 288.588162 
L 144.10955 289.386571 
L 145.539459 289.957115 
L 146.969369 290.307613 
L 148.399279 290.45087 
L 149.829189 290.403053 
L 151.616577 290.102172 
L 153.403964 289.567375 
L 155.548829 288.665927 
L 158.051171 287.323467 
L 160.910991 285.489426 
L 164.128288 283.132071 
L 167.703063 280.226542 
L 171.635315 276.743078 
L 175.925045 272.641656 
L 180.572252 267.873543 
L 185.219459 262.788565 
L 190.224144 256.973385 
L 195.228829 250.809189 
L 200.233514 244.278268 
L 204.880721 237.848912 
L 209.17045 231.557632 
L 213.46018 224.877334 
L 217.74991 217.768828 
L 222.03964 210.216047 
L 226.686847 201.565811 
L 232.763964 189.734023 
L 240.270991 175.153768 
L 243.845766 168.698019 
L 246.705586 163.98538 
L 249.207928 160.30723 
L 251.352793 157.558191 
L 253.14018 155.594584 
L 254.927568 153.960906 
L 256.357477 152.910326 
L 257.787387 152.101636 
L 259.217297 151.54621 
L 260.647207 151.253753 
L 262.077117 151.232136 
L 263.507027 151.487255 
L 264.936937 152.022915 
L 266.366847 152.840746 
L 267.796757 153.940154 
L 269.226667 155.318297 
L 270.656577 156.970107 
L 272.443964 159.408467 
L 274.231351 162.244212 
L 276.376216 166.138263 
L 278.521081 170.521837 
L 281.023423 176.179478 
L 283.883243 183.240052 
L 287.458018 192.724583 
L 293.177658 208.677625 
L 299.612252 226.465314 
L 303.544505 236.687213 
L 306.761802 244.494377 
L 309.979099 251.720216 
L 312.838919 257.622008 
L 315.698739 263.02334 
L 318.558559 267.93016 
L 321.418378 272.360166 
L 324.278198 276.339627 
L 327.138018 279.900446 
L 329.997838 283.077597 
L 332.857658 285.907013 
L 335.717477 288.423963 
L 338.577297 290.661892 
L 341.794595 292.884382 
L 345.011892 294.832234 
L 348.586667 296.716341 
L 352.161441 298.344738 
L 356.093694 299.881494 
L 360.383423 301.297187 
L 364.673153 302.480607 
L 369.32036 303.540118 
L 374.682523 304.521336 
L 380.402162 305.333646 
L 386.836757 306.016786 
L 394.343784 306.57743 
L 403.280721 307.007034 
L 414.362523 307.307297 
L 414.72 307.314002 
L 414.72 307.314002 
" clip-path="url(#p0f494b5bdf)" style="fill: none; stroke: #440154; stroke-width: 2; stroke-linecap: square"/>
   </g>
   <g id="line2d_2">
    <path d="M 57.6 307.584 
L 130.525405 307.475701 
L 139.104865 307.240748 
L 144.824505 306.880817 
L 149.114234 306.412271 
L 152.689009 305.822514 
L 155.906306 305.076711 
L 158.766126 304.190061 
L 161.268468 303.197998 
L 163.770811 301.960813 
L 165.915676 300.66994 
L 168.060541 299.132216 
L 170.205405 297.312635 
L 172.35027 295.173981 
L 174.495135 292.677309 
L 176.64 289.782581 
L 178.784865 286.449475 
L 180.92973 282.638344 
L 183.074595 278.31136 
L 185.219459 273.43379 
L 187.364324 267.975407 
L 189.509189 261.912006 
L 191.654054 255.226961 
L 194.156396 246.632676 
L 196.658739 237.189267 
L 199.161081 226.926244 
L 202.020901 214.265008 
L 205.238198 198.986065 
L 209.17045 179.185629 
L 220.967207 118.940665 
L 223.827027 105.93516 
L 226.329369 95.63413 
L 228.474234 87.78143 
L 230.261622 82.023892 
L 232.049009 77.052071 
L 233.478919 73.679605 
L 234.908829 70.8728 
L 235.981261 69.151959 
L 237.053694 67.768882 
L 238.126126 66.729573 
L 239.198559 66.03856 
L 240.270991 65.698862 
L 240.985946 65.668368 
L 241.700901 65.794765 
L 242.773333 66.27791 
L 243.845766 67.111323 
L 244.918198 68.291368 
L 245.990631 69.81291 
L 247.063063 71.669353 
L 248.492973 74.65153 
L 249.922883 78.19199 
L 251.352793 82.264039 
L 253.14018 88.055087 
L 254.927568 94.562692 
L 257.072432 103.214326 
L 259.574775 114.296301 
L 262.434595 127.983596 
L 266.366847 147.963314 
L 276.376216 199.37555 
L 279.950991 216.260228 
L 282.810811 228.775866 
L 285.670631 240.27847 
L 288.172973 249.454319 
L 290.675315 257.776576 
L 293.177658 265.245139 
L 295.322523 270.980992 
L 297.467387 276.123985 
L 299.612252 280.701751 
L 301.757117 284.747118 
L 303.901982 288.29665 
L 306.046847 291.389302 
L 308.191712 294.065215 
L 310.336577 296.364668 
L 312.481441 298.3272 
L 314.626306 299.990896 
L 316.771171 301.391838 
L 319.273514 302.738955 
L 321.775856 303.823008 
L 324.635676 304.79552 
L 327.495495 305.537908 
L 330.712793 306.157442 
L 334.645045 306.682224 
L 339.292252 307.072666 
L 345.369369 307.350365 
L 354.306306 307.516187 
L 372.537658 307.580029 
L 414.72 307.583999 
L 414.72 307.583999 
" clip-path="url(#p0f494b5bdf)" style="fill: none; stroke: #31688e; stroke-width: 2; stroke-linecap: square"/>
   </g>
   <g id="LineCollection_1">
    <path d="M 246.860465 307.584 
L 246.860465 162.432 
" clip-path="url(#p0f494b5bdf)" style="fill: none; stroke: #35b779; stroke-width: 1.5"/>
   </g>
   <g id="patch_3">
    <path d="M 59.602588 307.584 
Q 236.160196 307.584 411.599771 307.584 
" style="fill: none; stroke: #000000; stroke-linecap: round"/>
    <path d="M 407.599771 305.584 
L 411.599771 307.584 
L 407.599771 309.584 
" style="fill: none; stroke: #000000; stroke-linecap: round"/>
   </g>
   <g id="patch_4">
    <path d="M 71.8848 305.58215 
Q 71.8848 174.52853 71.8848 44.592945 
" style="fill: none; stroke: #000000; stroke-linecap: round"/>
    <path d="M 69.8848 48.592945 
L 71.8848 44.592945 
L 73.8848 48.592945 
" style="fill: none; stroke: #000000; stroke-linecap: round"/>
   </g>
   <g id="text_1">
    <!-- $\epsilon$ -->
    <g transform="translate(409.22 320.504677) scale(0.1 -0.1)">
     <defs>
      <path id="DejaVuSans-Oblique-3b5" d="M 1263 1888 
Q 925 1963 778 2166 
Q 669 2309 669 2503 
Q 669 3034 1175 3344 
Q 1575 3588 2188 3588 
Q 2425 3588 2684 3550 
Q 2944 3513 3234 3438 
L 3134 2916 
Q 2847 3006 2606 3047 
Q 2359 3088 2138 3088 
Q 1766 3088 1522 2944 
Q 1228 2772 1228 2522 
Q 1228 2356 1381 2241 
Q 1563 2103 1925 2103 
L 2409 2103 
L 2319 1628 
L 1856 1628 
Q 1425 1628 1172 1469 
Q 828 1253 828 916 
Q 828 703 1013 563 
Q 1244 388 1716 388 
Q 2006 388 2284 444 
Q 2563 503 2806 619 
L 2700 84 
Q 2403 -3 2131 -47 
Q 1859 -91 1609 -91 
Q 866 -91 516 194 
Q 250 413 250 781 
Q 250 1278 600 1584 
Q 859 1813 1263 1888 
z
" transform="scale(0.015625)"/>
     </defs>
     <use xlink:href="#DejaVuSans-Oblique-3b5" transform="translate(0 0.9375)"/>
    </g>
   </g>
   <g id="text_2">
    <!-- $p(\epsilon \mid x_{t})$ -->
    <g transform="translate(33.9728 41.472) rotate(-90) scale(0.1 -0.1)">
     <defs>
      <path id="DejaVuSans-Oblique-70" d="M 3175 2156 
Q 3175 2616 2975 2859 
Q 2775 3103 2400 3103 
Q 2144 3103 1911 2972 
Q 1678 2841 1497 2591 
Q 1319 2344 1212 1994 
Q 1106 1644 1106 1300 
Q 1106 863 1306 627 
Q 1506 391 1875 391 
Q 2147 391 2380 519 
Q 2613 647 2778 891 
Q 2956 1147 3065 1494 
Q 3175 1841 3175 2156 
z
M 1394 2969 
Q 1625 3272 1939 3428 
Q 2253 3584 2638 3584 
Q 3175 3584 3472 3232 
Q 3769 2881 3769 2247 
Q 3769 1728 3584 1258 
Q 3400 788 3053 416 
Q 2822 169 2531 39 
Q 2241 -91 1919 -91 
Q 1547 -91 1294 64 
Q 1041 219 916 525 
L 556 -1331 
L -19 -1331 
L 922 3500 
L 1497 3500 
L 1394 2969 
z
" transform="scale(0.015625)"/>
      <path id="DejaVuSans-28" d="M 1984 4856 
Q 1566 4138 1362 3434 
Q 1159 2731 1159 2009 
Q 1159 1288 1364 580 
Q 1569 -128 1984 -844 
L 1484 -844 
Q 1016 -109 783 600 
Q 550 1309 550 2009 
Q 550 2706 781 3412 
Q 1013 4119 1484 4856 
L 1984 4856 
z
" transform="scale(0.015625)"/>
      <path id="DejaVuSans-2223" d="M 1350 4934 
L 1850 4934 
L 1850 -1369 
L 1350 -1369 
L 1350 4934 
z
" transform="scale(0.015625)"/>
      <path id="DejaVuSans-Oblique-78" d="M 3841 3500 
L 2234 1784 
L 3219 0 
L 2559 0 
L 1819 1388 
L 531 0 
L -166 0 
L 1556 1844 
L 641 3500 
L 1300 3500 
L 1972 2234 
L 3144 3500 
L 3841 3500 
z
" transform="scale(0.015625)"/>
      <path id="DejaVuSans-Oblique-74" d="M 2706 3500 
L 2619 3053 
L 1472 3053 
L 1100 1153 
Q 1081 1047 1072 975 
Q 1063 903 1063 863 
Q 1063 663 1183 572 
Q 1303 481 1569 481 
L 2150 481 
L 2053 0 
L 1503 0 
Q 991 0 739 200 
Q 488 400 488 806 
Q 488 878 497 964 
Q 506 1050 525 1153 
L 897 3053 
L 409 3053 
L 500 3500 
L 978 3500 
L 1172 4494 
L 1747 4494 
L 1556 3500 
L 2706 3500 
z
" transform="scale(0.015625)"/>
      <path id="DejaVuSans-29" d="M 513 4856 
L 1013 4856 
Q 1481 4119 1714 3412 
Q 1947 2706 1947 2009 
Q 1947 1309 1714 600 
Q 1481 -109 1013 -844 
L 513 -844 
Q 928 -128 1133 580 
Q 1338 1288 1338 2009 
Q 1338 2731 1133 3434 
Q 928 4138 513 4856 
z
" transform="scale(0.015625)"/>
     </defs>
     <use xlink:href="#DejaVuSans-Oblique-70" transform="translate(0 0.90625)"/>
     <use xlink:href="#DejaVuSans-28" transform="translate(63.476562 0.90625)"/>
     <use xlink:href="#DejaVuSans-Oblique-3b5" transform="translate(102.490234 0.90625)"/>
     <use xlink:href="#DejaVuSans-2223" transform="translate(176.025391 0.90625)"/>
     <use xlink:href="#DejaVuSans-Oblique-78" transform="translate(245.507812 0.90625)"/>
     <use xlink:href="#DejaVuSans-Oblique-74" transform="translate(304.6875 -15.5) scale(0.7)"/>
     <use xlink:href="#DejaVuSans-29" transform="translate(334.868164 0.90625)"/>
    </g>
   </g>
   <g id="PathCollection_1">
    <defs>
     <path id="m72de2a0fe1" d="M 0 1.581139 
C 0.419323 1.581139 0.821528 1.41454 1.118034 1.118034 
C 1.41454 0.821528 1.581139 0.419323 1.581139 0 
C 1.581139 -0.419323 1.41454 -0.821528 1.118034 -1.118034 
C 0.821528 -1.41454 0.419323 -1.581139 0 -1.581139 
C -0.419323 -1.581139 -0.821528 -1.41454 -1.118034 -1.118034 
C -1.41454 -0.821528 -1.581139 -0.419323 -1.581139 0 
C -1.581139 0.419323 -1.41454 0.821528 -1.118034 1.118034 
C -0.821528 1.41454 -0.419323 1.581139 0 1.581139 
z
" style="stroke: #35b779"/>
    </defs>
    <g clip-path="url(#p0f494b5bdf)">
     <use xlink:href="#m72de2a0fe1" x="246.860465" y="162.432" style="fill: #35b779; stroke: #35b779"/>
    </g>
   </g>
   <g id="PathCollection_2">
    <defs>
     <path id="m34821274f5" d="M 0 3.535534 
C 0.937635 3.535534 1.836992 3.163008 2.5 2.5 
C 3.163008 1.836992 3.535534 0.937635 3.535534 0 
C 3.535534 -0.937635 3.163008 -1.836992 2.5 -2.5 
C 1.836992 -3.163008 0.937635 -3.535534 0 -3.535534 
C -0.937635 -3.535534 -1.836992 -3.163008 -2.5 -2.5 
C -3.163008 -1.836992 -3.535534 -0.937635 -3.535534 0 
C -3.535534 0.937635 -3.163008 1.836992 -2.5 2.5 
C -1.836992 3.163008 -0.937635 3.535534 0 3.535534 
z
" style="stroke: #fde725"/>
    </defs>
    <g clip-path="url(#p0f494b5bdf)">
     <use xlink:href="#m34821274f5" x="185.755331" y="302.50368" style="fill: #fde725; stroke: #fde725"/>
    </g>
   </g>
   <g id="legend_1">
    <g id="line2d_3">
     <path d="M 312.42625 54.570438 
L 322.42625 54.570438 
L 332.42625 54.570438 
" style="fill: none; stroke: #440154; stroke-width: 2; stroke-linecap: square"/>
    </g>
    <g id="text_3">
     <!-- Mixture -->
     <g transform="translate(340.42625 58.070438) scale(0.1 -0.1)">
      <defs>
       <path id="DejaVuSans-4d" d="M 628 4666 
L 1569 4666 
L 2759 1491 
L 3956 4666 
L 4897 4666 
L 4897 0 
L 4281 0 
L 4281 4097 
L 3078 897 
L 2444 897 
L 1241 4097 
L 1241 0 
L 628 0 
L 628 4666 
z
" transform="scale(0.015625)"/>
       <path id="DejaVuSans-69" d="M 603 3500 
L 1178 3500 
L 1178 0 
L 603 0 
L 603 3500 
z
M 603 4863 
L 1178 4863 
L 1178 4134 
L 603 4134 
L 603 4863 
z
" transform="scale(0.015625)"/>
       <path id="DejaVuSans-78" d="M 3513 3500 
L 2247 1797 
L 3578 0 
L 2900 0 
L 1881 1375 
L 863 0 
L 184 0 
L 1544 1831 
L 300 3500 
L 978 3500 
L 1906 2253 
L 2834 3500 
L 3513 3500 
z
" transform="scale(0.015625)"/>
       <path id="DejaVuSans-74" d="M 1172 4494 
L 1172 3500 
L 2356 3500 
L 2356 3053 
L 1172 3053 
L 1172 1153 
Q 1172 725 1289 603 
Q 1406 481 1766 481 
L 2356 481 
L 2356 0 
L 1766 0 
Q 1100 0 847 248 
Q 594 497 594 1153 
L 594 3053 
L 172 3053 
L 172 3500 
L 594 3500 
L 594 4494 
L 1172 4494 
z
" transform="scale(0.015625)"/>
       <path id="DejaVuSans-75" d="M 544 1381 
L 544 3500 
L 1119 3500 
L 1119 1403 
Q 1119 906 1312 657 
Q 1506 409 1894 409 
Q 2359 409 2629 706 
Q 2900 1003 2900 1516 
L 2900 3500 
L 3475 3500 
L 3475 0 
L 2900 0 
L 2900 538 
Q 2691 219 2414 64 
Q 2138 -91 1772 -91 
Q 1169 -91 856 284 
Q 544 659 544 1381 
z
M 1991 3584 
L 1991 3584 
z
" transform="scale(0.015625)"/>
       <path id="DejaVuSans-72" d="M 2631 2963 
Q 2534 3019 2420 3045 
Q 2306 3072 2169 3072 
Q 1681 3072 1420 2755 
Q 1159 2438 1159 1844 
L 1159 0 
L 581 0 
L 581 3500 
L 1159 3500 
L 1159 2956 
Q 1341 3275 1631 3429 
Q 1922 3584 2338 3584 
Q 2397 3584 2469 3576 
Q 2541 3569 2628 3553 
L 2631 2963 
z
" transform="scale(0.015625)"/>
       <path id="DejaVuSans-65" d="M 3597 1894 
L 3597 1613 
L 953 1613 
Q 991 1019 1311 708 
Q 1631 397 2203 397 
Q 2534 397 2845 478 
Q 3156 559 3463 722 
L 3463 178 
Q 3153 47 2828 -22 
Q 2503 -91 2169 -91 
Q 1331 -91 842 396 
Q 353 884 353 1716 
Q 353 2575 817 3079 
Q 1281 3584 2069 3584 
Q 2775 3584 3186 3129 
Q 3597 2675 3597 1894 
z
M 3022 2063 
Q 3016 2534 2758 2815 
Q 2500 3097 2075 3097 
Q 1594 3097 1305 2825 
Q 1016 2553 972 2059 
L 3022 2063 
z
" transform="scale(0.015625)"/>
      </defs>
      <use xlink:href="#DejaVuSans-4d"/>
      <use xlink:href="#DejaVuSans-69" transform="translate(86.279297 0)"/>
      <use xlink:href="#DejaVuSans-78" transform="translate(114.0625 0)"/>
      <use xlink:href="#DejaVuSans-74" transform="translate(173.242188 0)"/>
      <use xlink:href="#DejaVuSans-75" transform="translate(212.451172 0)"/>
      <use xlink:href="#DejaVuSans-72" transform="translate(275.830078 0)"/>
      <use xlink:href="#DejaVuSans-65" transform="translate(314.693359 0)"/>
     </g>
    </g>
    <g id="line2d_4">
     <path d="M 312.42625 69.248563 
L 322.42625 69.248563 
L 332.42625 69.248563 
" style="fill: none; stroke: #31688e; stroke-width: 2; stroke-linecap: square"/>
    </g>
    <g id="text_4">
     <!-- Gaussian -->
     <g transform="translate(340.42625 72.748563) scale(0.1 -0.1)">
      <defs>
       <path id="DejaVuSans-47" d="M 3809 666 
L 3809 1919 
L 2778 1919 
L 2778 2438 
L 4434 2438 
L 4434 434 
Q 4069 175 3628 42 
Q 3188 -91 2688 -91 
Q 1594 -91 976 548 
Q 359 1188 359 2328 
Q 359 3472 976 4111 
Q 1594 4750 2688 4750 
Q 3144 4750 3555 4637 
Q 3966 4525 4313 4306 
L 4313 3634 
Q 3963 3931 3569 4081 
Q 3175 4231 2741 4231 
Q 1884 4231 1454 3753 
Q 1025 3275 1025 2328 
Q 1025 1384 1454 906 
Q 1884 428 2741 428 
Q 3075 428 3337 486 
Q 3600 544 3809 666 
z
" transform="scale(0.015625)"/>
       <path id="DejaVuSans-61" d="M 2194 1759 
Q 1497 1759 1228 1600 
Q 959 1441 959 1056 
Q 959 750 1161 570 
Q 1363 391 1709 391 
Q 2188 391 2477 730 
Q 2766 1069 2766 1631 
L 2766 1759 
L 2194 1759 
z
M 3341 1997 
L 3341 0 
L 2766 0 
L 2766 531 
Q 2569 213 2275 61 
Q 1981 -91 1556 -91 
Q 1019 -91 701 211 
Q 384 513 384 1019 
Q 384 1609 779 1909 
Q 1175 2209 1959 2209 
L 2766 2209 
L 2766 2266 
Q 2766 2663 2505 2880 
Q 2244 3097 1772 3097 
Q 1472 3097 1187 3025 
Q 903 2953 641 2809 
L 641 3341 
Q 956 3463 1253 3523 
Q 1550 3584 1831 3584 
Q 2591 3584 2966 3190 
Q 3341 2797 3341 1997 
z
" transform="scale(0.015625)"/>
       <path id="DejaVuSans-73" d="M 2834 3397 
L 2834 2853 
Q 2591 2978 2328 3040 
Q 2066 3103 1784 3103 
Q 1356 3103 1142 2972 
Q 928 2841 928 2578 
Q 928 2378 1081 2264 
Q 1234 2150 1697 2047 
L 1894 2003 
Q 2506 1872 2764 1633 
Q 3022 1394 3022 966 
Q 3022 478 2636 193 
Q 2250 -91 1575 -91 
Q 1294 -91 989 -36 
Q 684 19 347 128 
L 347 722 
Q 666 556 975 473 
Q 1284 391 1588 391 
Q 1994 391 2212 530 
Q 2431 669 2431 922 
Q 2431 1156 2273 1281 
Q 2116 1406 1581 1522 
L 1381 1569 
Q 847 1681 609 1914 
Q 372 2147 372 2553 
Q 372 3047 722 3315 
Q 1072 3584 1716 3584 
Q 2034 3584 2315 3537 
Q 2597 3491 2834 3397 
z
" transform="scale(0.015625)"/>
       <path id="DejaVuSans-6e" d="M 3513 2113 
L 3513 0 
L 2938 0 
L 2938 2094 
Q 2938 2591 2744 2837 
Q 2550 3084 2163 3084 
Q 1697 3084 1428 2787 
Q 1159 2491 1159 1978 
L 1159 0 
L 581 0 
L 581 3500 
L 1159 3500 
L 1159 2956 
Q 1366 3272 1645 3428 
Q 1925 3584 2291 3584 
Q 2894 3584 3203 3211 
Q 3513 2838 3513 2113 
z
" transform="scale(0.015625)"/>
      </defs>
      <use xlink:href="#DejaVuSans-47"/>
      <use xlink:href="#DejaVuSans-61" transform="translate(77.490234 0)"/>
      <use xlink:href="#DejaVuSans-75" transform="translate(138.769531 0)"/>
      <use xlink:href="#DejaVuSans-73" transform="translate(202.148438 0)"/>
      <use xlink:href="#DejaVuSans-73" transform="translate(254.248047 0)"/>
      <use xlink:href="#DejaVuSans-69" transform="translate(306.347656 0)"/>
      <use xlink:href="#DejaVuSans-61" transform="translate(334.130859 0)"/>
      <use xlink:href="#DejaVuSans-6e" transform="translate(395.410156 0)"/>
     </g>
    </g>
    <g id="line2d_5">
     <path d="M 312.42625 83.926688 
L 332.42625 83.926688 
" style="fill: none; stroke: #35b779; stroke-width: 1.5"/>
    </g>
    <g id="text_5">
     <!-- Dirac -->
     <g transform="translate(340.42625 87.426688) scale(0.1 -0.1)">
      <defs>
       <path id="DejaVuSans-44" d="M 1259 4147 
L 1259 519 
L 2022 519 
Q 2988 519 3436 956 
Q 3884 1394 3884 2338 
Q 3884 3275 3436 3711 
Q 2988 4147 2022 4147 
L 1259 4147 
z
M 628 4666 
L 1925 4666 
Q 3281 4666 3915 4102 
Q 4550 3538 4550 2338 
Q 4550 1131 3912 565 
Q 3275 0 1925 0 
L 628 0 
L 628 4666 
z
" transform="scale(0.015625)"/>
       <path id="DejaVuSans-63" d="M 3122 3366 
L 3122 2828 
Q 2878 2963 2633 3030 
Q 2388 3097 2138 3097 
Q 1578 3097 1268 2742 
Q 959 2388 959 1747 
Q 959 1106 1268 751 
Q 1578 397 2138 397 
Q 2388 397 2633 464 
Q 2878 531 3122 666 
L 3122 134 
Q 2881 22 2623 -34 
Q 2366 -91 2075 -91 
Q 1284 -91 818 406 
Q 353 903 353 1747 
Q 353 2603 823 3093 
Q 1294 3584 2113 3584 
Q 2378 3584 2631 3529 
Q 2884 3475 3122 3366 
z
" transform="scale(0.015625)"/>
      </defs>
      <use xlink:href="#DejaVuSans-44"/>
      <use xlink:href="#DejaVuSans-69" transform="translate(77.001953 0)"/>
      <use xlink:href="#DejaVuSans-72" transform="translate(104.785156 0)"/>
      <use xlink:href="#DejaVuSans-61" transform="translate(145.898438 0)"/>
      <use xlink:href="#DejaVuSans-63" transform="translate(207.177734 0)"/>
     </g>
    </g>
    <g id="PathCollection_3">
     <g>
      <use xlink:href="#m34821274f5" x="322.42625" y="99.479813" style="fill: #fde725; stroke: #fde725"/>
     </g>
    </g>
    <g id="text_6">
     <!-- Ground Truth -->
     <g transform="translate(340.42625 102.104813) scale(0.1 -0.1)">
      <defs>
       <path id="DejaVuSans-6f" d="M 1959 3097 
Q 1497 3097 1228 2736 
Q 959 2375 959 1747 
Q 959 1119 1226 758 
Q 1494 397 1959 397 
Q 2419 397 2687 759 
Q 2956 1122 2956 1747 
Q 2956 2369 2687 2733 
Q 2419 3097 1959 3097 
z
M 1959 3584 
Q 2709 3584 3137 3096 
Q 3566 2609 3566 1747 
Q 3566 888 3137 398 
Q 2709 -91 1959 -91 
Q 1206 -91 779 398 
Q 353 888 353 1747 
Q 353 2609 779 3096 
Q 1206 3584 1959 3584 
z
" transform="scale(0.015625)"/>
       <path id="DejaVuSans-64" d="M 2906 2969 
L 2906 4863 
L 3481 4863 
L 3481 0 
L 2906 0 
L 2906 525 
Q 2725 213 2448 61 
Q 2172 -91 1784 -91 
Q 1150 -91 751 415 
Q 353 922 353 1747 
Q 353 2572 751 3078 
Q 1150 3584 1784 3584 
Q 2172 3584 2448 3432 
Q 2725 3281 2906 2969 
z
M 947 1747 
Q 947 1113 1208 752 
Q 1469 391 1925 391 
Q 2381 391 2643 752 
Q 2906 1113 2906 1747 
Q 2906 2381 2643 2742 
Q 2381 3103 1925 3103 
Q 1469 3103 1208 2742 
Q 947 2381 947 1747 
z
" transform="scale(0.015625)"/>
       <path id="DejaVuSans-20" transform="scale(0.015625)"/>
       <path id="DejaVuSans-54" d="M -19 4666 
L 3928 4666 
L 3928 4134 
L 2272 4134 
L 2272 0 
L 1638 0 
L 1638 4134 
L -19 4134 
L -19 4666 
z
" transform="scale(0.015625)"/>
       <path id="DejaVuSans-68" d="M 3513 2113 
L 3513 0 
L 2938 0 
L 2938 2094 
Q 2938 2591 2744 2837 
Q 2550 3084 2163 3084 
Q 1697 3084 1428 2787 
Q 1159 2491 1159 1978 
L 1159 0 
L 581 0 
L 581 4863 
L 1159 4863 
L 1159 2956 
Q 1366 3272 1645 3428 
Q 1925 3584 2291 3584 
Q 2894 3584 3203 3211 
Q 3513 2838 3513 2113 
z
" transform="scale(0.015625)"/>
      </defs>
      <use xlink:href="#DejaVuSans-47"/>
      <use xlink:href="#DejaVuSans-72" transform="translate(77.490234 0)"/>
      <use xlink:href="#DejaVuSans-6f" transform="translate(116.353516 0)"/>
      <use xlink:href="#DejaVuSans-75" transform="translate(177.535156 0)"/>
      <use xlink:href="#DejaVuSans-6e" transform="translate(240.914062 0)"/>
      <use xlink:href="#DejaVuSans-64" transform="translate(304.292969 0)"/>
      <use xlink:href="#DejaVuSans-20" transform="translate(367.769531 0)"/>
      <use xlink:href="#DejaVuSans-54" transform="translate(399.556641 0)"/>
      <use xlink:href="#DejaVuSans-72" transform="translate(445.890625 0)"/>
      <use xlink:href="#DejaVuSans-75" transform="translate(487.003906 0)"/>
      <use xlink:href="#DejaVuSans-74" transform="translate(550.382812 0)"/>
      <use xlink:href="#DejaVuSans-68" transform="translate(589.591797 0)"/>
     </g>
    </g>
   </g>
  </g>
 </g>
 <defs>
  <clipPath id="p0f494b5bdf">
   <rect x="57.6" y="41.472" width="357.12" height="266.112"/>
  </clipPath>
 </defs>
</svg>
